<svg width="17" height="17" viewBox="0 0 17 17" fill="none" xmlns="http://www.w3.org/2000/svg">
<path d="M4.95833 5.94984L7.50833 8.49984L4.95833 11.0498L5.95 12.0415L8.5 9.4915L11.05 12.0415L12.0417 11.0498L9.49166 8.49984L12.0417 5.94984L11.05 4.95817L8.5 7.50817L5.95 4.95817L4.95833 5.94984ZM1.41666 8.49984C1.41666 7.51998 1.6026 6.59914 1.97447 5.73734C2.34635 4.87553 2.85104 4.12588 3.48854 3.48838C4.12604 2.85088 4.87569 2.34619 5.73749 1.97432C6.5993 1.60244 7.52013 1.4165 8.5 1.4165C9.47986 1.4165 10.4007 1.60244 11.2625 1.97432C12.1243 2.34619 12.874 2.85088 13.5115 3.48838C14.149 4.12588 14.6536 4.87553 15.0255 5.73734C15.3974 6.59914 15.5833 7.51998 15.5833 8.49984C15.5833 9.4797 15.3974 10.4005 15.0255 11.2623C14.6536 12.1241 14.149 12.8738 13.5115 13.5113C12.874 14.1488 12.1243 14.6535 11.2625 15.0254C10.4007 15.3972 9.47986 15.5832 8.5 15.5832C7.52013 15.5832 6.5993 15.3972 5.73749 15.0254C4.87569 14.6535 4.12604 14.1488 3.48854 13.5113C2.85104 12.8738 2.34635 12.1241 1.97447 11.2623C1.6026 10.4005 1.41666 9.4797 1.41666 8.49984ZM2.83333 8.49984C2.83333 10.0818 3.38229 11.4217 4.4802 12.5196C5.57812 13.6175 6.91805 14.1665 8.5 14.1665C10.0819 14.1665 11.4219 13.6175 12.5198 12.5196C13.6177 11.4217 14.1667 10.0818 14.1667 8.49984C14.1667 6.91789 13.6177 5.57796 12.5198 4.48005C11.4219 3.38213 10.0819 2.83317 8.5 2.83317C6.91805 2.83317 5.57812 3.38213 4.4802 4.48005C3.38229 5.57796 2.83333 6.91789 2.83333 8.49984Z" fill="white"/>
</svg>
