<svg width="33" height="33" viewBox="0 0 33 33" fill="none" xmlns="http://www.w3.org/2000/svg">
<path d="M11 4.125V8.25C11 8.97935 10.7103 9.67882 10.1945 10.1945C9.67882 10.7103 8.97935 11 8.25 11H4.125M28.875 11H24.75C24.0207 11 23.3212 10.7103 22.8055 10.1945C22.2897 9.67882 22 8.97935 22 8.25V4.125M22 28.875V24.75C22 24.0207 22.2897 23.3212 22.8055 22.8055C23.3212 22.2897 24.0207 22 24.75 22H28.875M4.125 22H8.25C8.97935 22 9.67882 22.2897 10.1945 22.8055C10.7103 23.3212 11 24.0207 11 24.75V28.875" stroke="#1E1E1E" stroke-width="3.5" stroke-linecap="round" stroke-linejoin="round"/>
</svg>
