<svg width="33" height="33" viewBox="0 0 33 33" fill="none" xmlns="http://www.w3.org/2000/svg">
<g clip-path="url(#clip0_141_519)">
<path d="M1.375 5.50011V13.7501M1.375 13.7501H9.625M1.375 13.7501L7.755 7.75511C9.65375 5.85957 12.1171 4.63245 14.7739 4.25865C17.4307 3.88485 20.1371 4.38462 22.4851 5.68266C24.8332 6.9807 26.6958 9.0067 27.7924 11.4554C28.8889 13.9041 29.1599 16.6428 28.5646 19.2589C27.9692 21.875 26.5398 24.2267 24.4917 25.9598C22.4435 27.6928 19.8877 28.7133 17.2091 28.8675C14.5306 29.0217 11.8745 28.3011 9.64103 26.8145C7.40759 25.3279 5.71779 23.1556 4.82625 20.6251" stroke="#1E1E1E" stroke-width="3.5" stroke-linecap="round" stroke-linejoin="round"/>
</g>
<defs>
<clipPath id="clip0_141_519">
<rect width="33" height="33" fill="white"/>
</clipPath>
</defs>
</svg>
